# xmcd
#
# Track frame offsets:
#	183
#	15958
#	27918
#	43055
#	57928
#	73403
#	86230
#	102118
#	114355
#	129953
#	143495
#	158745
#	171168
#	186148
#	199533
#	214365
#
# Disc length: 3042 seconds
#
# Revision: 1
# Processed by: cddbd v1.5.2PL0 Copyright (c) Steve Scherf et al.
# Submitted via: audiograbber 1.83.01
#
DISCID=d80be010
DTITLE=Kirmes Marussel - Die Stimmungsmacher
DYEAR=1988
DGENRE=Akkordeon
TTITLE0=Blaues Boot der Liebe
TTITLE1=Wo die Tanne rauscht
TTITLE2=Azzurro
TTITLE3=Fröhliche Fahrt an den Bodensee
TTITLE4=Zwei Matrosen die sahen ein Mädchen
TTITLE5=Weit ist das Meer
TTITLE6=Eine blaue Stunde ist keine schlaue Stunde
TTITLE7=Mein Schwarzwald
TTITLE8=Ein Abend für uns zwei
TTITLE9=Sag ich Aloa
TTITLE10=Im Schwarzwald ist es herrlich
TTITLE11=Blau ist der Himmel
TTITLE12=Unser Schwarzwaldtal
TTITLE13=Der Sprudel-Aqua-Minerala-Cha-Cha-Cha
TTITLE14=Gib acht auf dein Herz, Margarethe
TTITLE15=Komm zu mir
EXTD=
EXTT0=
EXTT1=
EXTT2=
EXTT3=
EXTT4=
EXTT5=
EXTT6=
EXTT7=
EXTT8=
EXTT9=
EXTT10=
EXTT11=
EXTT12=
EXTT13=
EXTT14=
EXTT15=
PLAYORDER=
